<?xml version="1.0" standalone="no"?><svg xmlns="http://www.w3.org/2000/svg" viewBox="0 0 1440 320"><path fill="#F7ECDE" fill-opacity="0.5" d="M0,320L24,293.3C48,267,96,213,144,213.3C192,213,240,267,288,272C336,277,384,235,432,202.7C480,171,528,149,576,165.3C624,181,672,235,720,256C768,277,816,267,864,256C912,245,960,235,1008,218.7C1056,203,1104,181,1152,160C1200,139,1248,117,1296,112C1344,107,1392,117,1416,122.7L1440,128L1440,320L1416,320C1392,320,1344,320,1296,320C1248,320,1200,320,1152,320C1104,320,1056,320,1008,320C960,320,912,320,864,320C816,320,768,320,720,320C672,320,624,320,576,320C528,320,480,320,432,320C384,320,336,320,288,320C240,320,192,320,144,320C96,320,48,320,24,320L0,320Z"></path></svg>